<svg xmlns="http://www.w3.org/2000/svg" version="1.1" xmlns:xlink="http://www.w3.org/1999/xlink" xmlns:svgjs="http://svgjs.dev/svgjs" width="2000" height="2250" viewBox="0 0 2000 2250"><g transform="matrix(1,0,0,1,0,0)"><svg viewBox="0 0 320 360" data-background-color="#ffffff" preserveAspectRatio="xMidYMid meet" height="2250" width="2000" xmlns="http://www.w3.org/2000/svg" xmlns:xlink="http://www.w3.org/1999/xlink"><g id="tight-bounds" transform="matrix(1,0,0,1,0,0)"><svg viewBox="0 0 320 360" height="360" width="320"><rect width="320" height="360" fill="url(#ee7dd532-ddbd-4071-85fa-7f14b615d8db)" mask="url(#0f6f0d11-1a3e-45ae-aa4d-2868757a0d19)" data-fill-palette-color="tertiary"></rect><g><svg></svg></g><g><svg viewBox="0 0 320 360" height="360" width="320"><g><path xmlns="http://www.w3.org/2000/svg" d="M297.491 100.645c-12.426-21.51-112.674-79.355-137.491-79.355-24.817 0-125.028 57.845-137.491 79.355-11.591 20.02-11.591 138.726 0 158.746 12.463 21.474 112.674 79.319 137.491 79.319 24.817 0 125.064-57.845 137.491-79.355 11.591-20.02 11.591-138.69 0-158.71zM309.481 93.705c-14.461-24.998-119.469-86.295-149.481-86.295-30.012 0-135.02 61.297-149.481 86.295-14.025 24.199-14.025 148.391 0 172.59 14.461 24.998 119.469 86.295 149.481 86.295 30.012 0 135.02-61.297 149.481-86.259 14.025-24.235 14.025-148.427 0-172.626zM300.906 261.353c-12.753 22.055-115.472 81.317-140.906 81.318-25.434 0-128.153-59.298-140.906-81.354-11.881-20.529-11.881-142.178 0-162.707 12.753-22.019 115.472-81.281 140.906-81.281 25.434 0 128.153 59.298 140.906 81.318 11.881 20.529 11.881 142.178 0 162.706z" fill="url(#ee7dd532-ddbd-4071-85fa-7f14b615d8db)" fill-rule="nonzero" stroke="none" stroke-width="1" stroke-linecap="butt" stroke-linejoin="miter" stroke-miterlimit="10" stroke-dasharray="" stroke-dashoffset="0" font-family="none" font-weight="none" font-size="none" text-anchor="none" style="mix-blend-mode: normal" data-fill-palette-color="tertiary"></path></g><g transform="matrix(1,0,0,1,48,105.05023696682466)"><svg viewBox="0 0 224 149.8995260663507" height="149.8995260663507" width="224"><g><svg viewBox="0 0 224 149.8995260663507" height="149.8995260663507" width="224"><g><svg viewBox="0 0 224 149.8995260663507" height="149.8995260663507" width="224"><g id="textblocktransform"><svg viewBox="0 0 224 149.8995260663507" height="149.8995260663507" width="224" id="textblock"><g><svg viewBox="0 0 224 149.8995260663507" height="149.8995260663507" width="224"><g transform="matrix(1,0,0,1,0,0)"><svg width="224" viewBox="1.600000023841858 -34.900001525878906 52.75 35.30000305175781" height="149.8995260663507" data-palette-color="#ffffff"><path d="M17-29.05L17-29.05Q15.3-29.5 13.45-29.5 11.6-29.5 10.48-28.58 9.35-27.65 9.35-25.98 9.35-24.3 10.2-23.35 11.05-22.4 13.55-21.7L13.55-21.7 18-20.4Q21.6-19.35 23.73-17.13 25.85-14.9 25.85-10.6L25.85-10.6Q25.85-5.5 22.18-2.55 18.5 0.4 13.05 0.4L13.05 0.4Q10.05 0.4 6.88-0.38 3.7-1.15 1.6-2.55L1.6-2.55Q1.6-2.85 1.6-3.7 1.6-4.55 1.95-6.6 2.3-8.65 2.95-9.95L2.95-9.95 7.7-9.95Q8.5-8.4 8.65-5.8L8.65-5.8Q10.4-5.05 12.73-5.05 15.05-5.05 16.55-6.15 18.05-7.25 18.05-9.3L18.05-9.3Q18.05-10.25 17.9-10.88 17.75-11.5 16.98-12.23 16.2-12.95 14.75-13.4L14.75-13.4 9.6-14.9Q1.75-17.15 1.75-24.9L1.75-24.9Q1.75-29.45 5.05-32.18 8.35-34.9 13.68-34.9 19-34.9 24.1-32.5L24.1-32.5Q24.1-32.2 24.1-31.35 24.1-30.5 23.75-28.45 23.4-26.4 22.75-25.1L22.75-25.1 18-25.1Q17.15-26.3 17-29.05ZM47.1-28.6L47.1-28.6Q45.6-29.25 42.6-29.25 39.6-29.25 37.75-26.65 35.9-24.05 35.9-17.55 35.9-11.05 37.67-8.33 39.45-5.6 42.95-5.6L42.95-5.6Q48.3-5.6 52.55-7.2L52.55-7.2 54.35-2.75Q49.05 0.4 41.9 0.4 34.75 0.4 31.57-3.65 28.4-7.7 28.4-16.9 28.4-26.1 32.32-30.5 36.25-34.9 43.35-34.9L43.35-34.9Q49.05-34.9 54.2-31.75L54.2-31.75Q54.2-31.45 54.2-30.6 54.2-29.75 53.85-27.7 53.5-25.65 52.85-24.35L52.85-24.35 48.1-24.35Q47.4-25.7 47.1-28.6Z" opacity="1" transform="matrix(1,0,0,1,0,0)" fill="#ffffff" class="wordmark-text-0" data-fill-palette-color="quaternary" id="text-0"></path></svg></g></svg></g></svg></g></svg></g><g></g></svg></g></svg></g></svg></g><defs></defs><mask id="0f6f0d11-1a3e-45ae-aa4d-2868757a0d19"><g id="SvgjsG1699"><svg viewBox="0 0 320 360" height="360" width="320"><g><svg></svg></g><g><svg viewBox="0 0 320 360" height="360" width="320"><g><path xmlns="http://www.w3.org/2000/svg" d="M297.491 100.645c-12.426-21.51-112.674-79.355-137.491-79.355-24.817 0-125.028 57.845-137.491 79.355-11.591 20.02-11.591 138.726 0 158.746 12.463 21.474 112.674 79.319 137.491 79.319 24.817 0 125.064-57.845 137.491-79.355 11.591-20.02 11.591-138.69 0-158.71zM309.481 93.705c-14.461-24.998-119.469-86.295-149.481-86.295-30.012 0-135.02 61.297-149.481 86.295-14.025 24.199-14.025 148.391 0 172.59 14.461 24.998 119.469 86.295 149.481 86.295 30.012 0 135.02-61.297 149.481-86.259 14.025-24.235 14.025-148.427 0-172.626zM300.906 261.353c-12.753 22.055-115.472 81.317-140.906 81.318-25.434 0-128.153-59.298-140.906-81.354-11.881-20.529-11.881-142.178 0-162.707 12.753-22.019 115.472-81.281 140.906-81.281 25.434 0 128.153 59.298 140.906 81.318 11.881 20.529 11.881 142.178 0 162.706z" fill="white" fill-rule="nonzero" stroke="none" stroke-width="1" stroke-linecap="butt" stroke-linejoin="miter" stroke-miterlimit="10" stroke-dasharray="" stroke-dashoffset="0" font-family="none" font-weight="none" font-size="none" text-anchor="none" style="mix-blend-mode: normal"></path></g><g transform="matrix(1,0,0,1,48,105.05023696682466)"><svg viewBox="0 0 224 149.8995260663507" height="149.8995260663507" width="224"><g><svg viewBox="0 0 224 149.8995260663507" height="149.8995260663507" width="224"><g><svg viewBox="0 0 224 149.8995260663507" height="149.8995260663507" width="224"><g id="SvgjsG1698"><svg viewBox="0 0 224 149.8995260663507" height="149.8995260663507" width="224" id="SvgjsSvg1697"><g><svg viewBox="0 0 224 149.8995260663507" height="149.8995260663507" width="224"><g transform="matrix(1,0,0,1,0,0)"><svg width="224" viewBox="1.600000023841858 -34.900001525878906 52.75 35.30000305175781" height="149.8995260663507" data-palette-color="#ffffff"></svg></g></svg></g></svg></g></svg></g><g></g></svg></g></svg></g></svg></g><defs></defs></svg></g></mask><linearGradient x1="0" x2="1" y1="0.548" y2="0.55" id="ee7dd532-ddbd-4071-85fa-7f14b615d8db"><stop stop-color="#ff6cab" offset="0"></stop><stop stop-color="#7366ff" offset="1"></stop></linearGradient></svg><rect width="320" height="360" fill="none" stroke="none" visibility="hidden"></rect></g></svg></g></svg>